<?xml version="1.0" standalone="no"?>
<!DOCTYPE svg PUBLIC "-//W3C//DTD SVG 20010904//EN"
 "http://www.w3.org/TR/2001/REC-SVG-20010904/DTD/svg10.dtd">
<svg version="1.0" xmlns="http://www.w3.org/2000/svg"
 width="162.000000pt" height="202.000000pt" viewBox="0 0 162.000000 202.000000"
 preserveAspectRatio="xMidYMid meet">

<g transform="translate(0.000000,202.000000) scale(0.100000,-0.100000)"
fill="#000000" stroke="none">
<path d="M10 1840 l0 -179 463 -3 462 -3 57 -28 c75 -37 159 -128 188 -204 41
-108 27 -231 -39 -335 -17 -26 -63 -72 -109 -106 -123 -94 -181 -207 -169
-335 6 -66 27 -113 137 -307 40 -69 99 -173 132 -232 l61 -108 210 0 c179 0
208 2 204 15 -5 13 -191 342 -320 569 l-51 88 30 21 c293 210 390 607 227 931
-69 139 -170 243 -306 316 -150 81 -139 80 -689 80 l-488 0 0 -180z"/>
<path d="M18 695 l2 -695 430 0 c237 0 430 3 430 6 0 15 -156 282 -179 307
-42 46 -60 52 -191 57 l-125 5 0 508 0 507 -185 0 -185 0 3 -695z"/>
</g>
</svg>
